<svg xmlns="http://www.w3.org/2000/svg" version="1.1" width="96" height="96" viewbox="0 0 96 96"><rect x="0" y="0" width="96" height="96" fill="#FFFFFF"></rect><g transform="translate(29.328, 60.024)"><path d="M3.36-11.04Q2.69-11.38 2.69-12 2.69-12.62 3.36-12.96L3.36-12.96 17.71-12.96 17.71-20.16 17.76-27.36Q18.24-27.98 18.67-27.98L18.67-27.98Q19.3-27.98 19.63-27.26L19.63-27.26 19.63-12.96 33.94-12.96Q34.66-12.58 34.66-12 34.66-11.42 33.94-11.04L33.94-11.04 19.63-11.04 19.63 3.26Q19.3 3.94 18.67 3.94 18.05 3.94 17.71 3.26L17.71 3.26 17.71-11.04 3.36-11.04Z" fill="#404040"></path></g></svg>